# xmcd
#
# Track frame offsets:
#	150
#	21915
#	53106
#	140034
#	167939
#
# Disc length: 2444 seconds
#
# Revision: 1
# Processed by: cddbd v1.5.1PL0 Copyright (c) Steve Scherf et al.
# Submitted via: audiograbber 1.83.01
#
DISCID=44098a05
DTITLE=Albert Collins - 1992-05-01 - Graffitti's, Pittsburgh, PA - Disc 2
DYEAR=1900
DGENRE=
TTITLE0=If You Love Me Like You Say
TTITLE1=Things That I used To Do
TTITLE2=Same Old Thing
TTITLE3=Encore - Mastercharge
TTITLE4=Encore - How Sweet It Is
EXTD=
EXTT0=
EXTT1=
EXTT2=
EXTT3=
EXTT4=
PLAYORDER=
